<svg id="sun-animation" xmlns="http://www.w3.org/2000/svg" width="400" height="400" viewBox="0 0 400 400">
  <path id="sun-ring-1" d="M200,100A100,100,0,1,0,300,200,100,100,0,0,0,200,100Zm0,186.5A86.5,86.5,0,1,1,286.5,200,86.5,86.5,0,0,1,200,286.5Z"/>
  <path id="sun-ring-2" d="M200,100A100,100,0,1,0,300,200,100,100,0,0,0,200,100Zm0,186.5A86.5,86.5,0,1,1,286.5,200,86.5,86.5,0,0,1,200,286.5Z"/>
  <path id="sun-ring-3" d="M200,100A100,100,0,1,0,300,200,100,100,0,0,0,200,100Zm0,186.5A86.5,86.5,0,1,1,286.5,200,86.5,86.5,0,0,1,200,286.5Z"/>
  <circle id="sun-body" cx="200" cy="200" r="100"/>
</svg>
